<svg width="20" height="20" viewBox="0 0 20 20" fill="none" xmlns="http://www.w3.org/2000/svg">
<path d="M9.65416 1.06438C9.76302 0.72936 10.237 0.72936 10.3458 1.06438L12.1635 6.65856C12.2122 6.80839 12.3518 6.90983 12.5093 6.90983H18.3914C18.7437 6.90983 18.8901 7.3606 18.6051 7.56765L13.8465 11.025C13.719 11.1176 13.6657 11.2818 13.7144 11.4316L15.532 17.0258C15.6409 17.3608 15.2574 17.6394 14.9724 17.4323L10.2137 13.975C10.0863 13.8824 9.91371 13.8824 9.78626 13.975L5.02757 17.4323C4.74258 17.6394 4.35913 17.3608 4.46799 17.0258L6.28565 11.4316C6.33433 11.2818 6.281 11.1176 6.15355 11.025L1.39485 7.56765C1.10987 7.3606 1.25633 6.90983 1.60859 6.90983H7.49066C7.6482 6.90983 7.78782 6.80839 7.8365 6.65856L9.65416 1.06438Z" fill="#CBD5E1"/>
</svg>
